<svg xmlns="http://www.w3.org/2000/svg" viewBox="0 0 64 64" width="64" height="64" role="img" aria-label="TnufaReview">
  <rect x="4" y="4" width="56" height="56" rx="14" fill="#0f7a5a"/>
  <path transform="translate(32 32) scale(0.045714 -0.045714) translate(-315.0625 -350.0000)" fill="#ffffff" d="M249 0Q238.375 0 231.125 7.25Q223.875 14.5 223.875 25.125V543.125H45.875Q35.25 543.125 28.0 550.375Q20.75 557.625 20.75 568.25V674.5Q20.75 685.5 28.0 692.75Q35.25 700 45.875 700H583.875Q594.875 700 602.125 692.75Q609.375 685.5 609.375 674.5V568.25Q609.375 557.625 602.125 550.375Q594.875 543.125 583.875 543.125H406.25V25.125Q406.25 14.5 399.0 7.25Q391.75 0 380.75 0Z"/>
</svg>
